<?xml version="1.0" encoding="UTF-8"?>
<svg id="Layer_7" data-name="Layer 7" xmlns="http://www.w3.org/2000/svg" xmlns:xlink="http://www.w3.org/1999/xlink" viewBox="0 0 1080 309.72">
  <defs>
    <style>
      .cls-1 {
        fill: url(#linear-gradient);
      }

      .cls-1, .cls-2, .cls-3, .cls-4, .cls-5 {
        stroke-width: 0px;
      }

      .cls-2 {
        fill: #fff;
      }

      .cls-3 {
        fill: url(#linear-gradient-2);
      }

      .cls-4 {
        fill: url(#linear-gradient-3);
      }

      .cls-5 {
        fill: url(#linear-gradient-4);
      }
    </style>
    <linearGradient id="linear-gradient" x1="240.04" y1="159.61" x2="206.63" y2="282.67" gradientUnits="userSpaceOnUse">
      <stop offset="0" stop-color="#01fdf6"/>
      <stop offset=".05" stop-color="#06fce5"/>
      <stop offset=".17" stop-color="#11fbc0"/>
      <stop offset=".28" stop-color="#1afaa5"/>
      <stop offset=".38" stop-color="#1ffa95"/>
      <stop offset=".46" stop-color="#21fa90"/>
      <stop offset=".51" stop-color="#23e89e"/>
      <stop offset=".71" stop-color="#2ea8d2"/>
      <stop offset=".85" stop-color="#3481f2"/>
      <stop offset=".93" stop-color="#3772ff"/>
    </linearGradient>
    <linearGradient id="linear-gradient-2" x1="2.02" y1="107.73" x2="144.99" y2="18.86" gradientUnits="userSpaceOnUse">
      <stop offset="0" stop-color="#21fa90"/>
      <stop offset=".07" stop-color="#69f475"/>
      <stop offset=".12" stop-color="#94f064"/>
      <stop offset=".16" stop-color="#b7ed57"/>
      <stop offset=".2" stop-color="#d2eb4c"/>
      <stop offset=".25" stop-color="#e6e944"/>
      <stop offset=".29" stop-color="#f2e840"/>
      <stop offset=".33" stop-color="#f6e83f"/>
      <stop offset=".39" stop-color="#f6e343"/>
      <stop offset=".46" stop-color="#f7d550"/>
      <stop offset=".53" stop-color="#f8be67"/>
      <stop offset=".61" stop-color="#fa9e86"/>
      <stop offset=".68" stop-color="#fc75ad"/>
      <stop offset=".76" stop-color="#ff47da"/>
    </linearGradient>
    <linearGradient id="linear-gradient-3" x1="62.92" y1="176.09" x2="208.7" y2="176.09" gradientUnits="userSpaceOnUse">
      <stop offset="0" stop-color="#e4ff1a"/>
      <stop offset=".06" stop-color="#e9d644"/>
      <stop offset=".14" stop-color="#f1a379"/>
      <stop offset=".22" stop-color="#f77ba3"/>
      <stop offset=".29" stop-color="#fb5ec1"/>
      <stop offset=".35" stop-color="#fe4dd3"/>
      <stop offset=".39" stop-color="#ff47da"/>
      <stop offset=".78" stop-color="#8a4fff"/>
    </linearGradient>
    <linearGradient id="linear-gradient-4" x1="152.67" y1="136.22" x2="184.16" y2="136.22" gradientUnits="userSpaceOnUse">
      <stop offset="0" stop-color="#ff47da"/>
      <stop offset=".06" stop-color="#dd5edd"/>
      <stop offset=".16" stop-color="#aa83e3"/>
      <stop offset=".26" stop-color="#7da4e8"/>
      <stop offset=".37" stop-color="#56bfec"/>
      <stop offset=".48" stop-color="#37d5ef"/>
      <stop offset=".59" stop-color="#1fe7f2"/>
      <stop offset=".71" stop-color="#0ef3f4"/>
      <stop offset=".84" stop-color="#04faf5"/>
      <stop offset="1" stop-color="#01fdf6"/>
    </linearGradient>
  </defs>
  <g>
    <path class="cls-1" d="m201.32,138.75h0c0,5.73,3.71,10.9,9.22,12.47,20.28,5.8,35.18,24.5,35.18,46.62s-14.89,40.82-35.18,46.62c-5.51,1.58-9.22,6.74-9.22,12.47h0c0,8.62,8.24,14.98,16.52,12.59,31.14-8.96,53.98-37.71,53.98-71.69s-22.84-62.73-53.98-71.69c-8.28-2.38-16.52,3.98-16.52,12.59Z"/>
    <path class="cls-3" d="m61.19,121.19c-21.53-6.2-36.96-26.93-34.91-50.85,2-23.36,20.98-42.22,44.35-44.08,24.12-1.93,44.95,13.91,50.81,35.81,1.52,5.67,6.7,9.57,12.56,9.57h0c8.57,0,14.84-8.14,12.62-16.41C137.56,21.58,105.52-2.74,68.44.25,32.44,3.15,3.32,32.15.27,68.14c-3.1,36.73,20.59,68.58,53.64,78.12,8.31,2.4,16.58-3.92,16.58-12.57v-.02c0-5.77-3.77-10.89-9.31-12.49Z"/>
    <path class="cls-4" d="m149.04,203.28c-.06-.52-.08-1.04-.08-1.56v-105.46c0-7.21-5.84-13.05-13.05-13.05h0c-7.21,0-13.05,5.84-13.05,13.05v13.86c0,7.21-5.84,13.05-13.05,13.05h-14.69c-7.21,0-13.05,5.84-13.05,13.05h0c0,7.21,5.84,13.05,13.05,13.05h14.69c7.21,0,13.05,5.84,13.05,13.05v40.45c.02.56.05,1.12.07,1.68,2.61,29.62,22.6,54.33,49.69,63.82,8.39,2.94,17.13-3.51,17.13-12.39h0c0-5.62-3.63-10.48-8.9-12.38-17.06-6.14-29.72-21.6-31.81-40.21Z"/>
    <rect class="cls-5" x="158.25" y="123.17" width="31.5" height="26.1" rx="13.05" ry="13.05"/>
  </g>
  <g>
    <path class="cls-2" d="m396.35,167.59h-36.55v102.21h-18.1v-102.21h-36.38v-16.68h91.03v16.68Z"/>
    <path class="cls-2" d="m389.07,225.79c0-25.02,17.92-45.43,44.01-45.43s42.59,18.99,42.59,43.3v7.1h-69.56c1.95,14.91,13.31,25.37,28.93,25.37,10.65,0,20.23-4.61,25.37-14.2l13.49,6.92c-7.63,14.91-21.65,22.89-38.68,22.89-26.44,0-46.14-19.16-46.14-45.96Zm69.03-6.39c-.71-13.84-10.82-23.25-25.2-23.25s-24.31,10.29-26.09,23.25h51.28Z"/>
    <path class="cls-2" d="m482.22,226.14c0-25.02,20.41-45.6,45.43-45.43,15.97,0,30.7,7.28,38.68,22.89l-14.55,8.16c-5.15-9.4-13.84-14.37-24.13-14.37-15.26,0-27.86,12.95-27.86,28.74s12.6,29.1,27.86,29.1c10.29,0,18.99-4.97,24.13-14.37l14.55,7.98c-7.99,15.79-22.71,22.89-38.68,22.89-25.02.36-45.43-20.41-45.43-45.6Z"/>
    <path class="cls-2" d="m578.92,269.79v-126.87h17.57v49.69c6.74-7.28,17.21-11.89,28.93-11.89,25.55,0,39.92,17.03,39.92,43.65v45.43h-17.57v-43.65c0-15.44-8.52-28.74-25.02-28.74-15.44,0-26.26,12.42-26.26,29.28v43.12h-17.57Z"/>
    <path class="cls-2" d="m687.86,238.56v-40.46h-17.21v-15.26h17.21v-22.53h17.57v22.53h33.36v15.26h-33.36v39.93c0,11.36,6.74,18.1,17.21,18.1,5.68,0,11.89-2.13,16.15-5.15v16.15c-4.44,3.02-11.36,4.97-17.75,4.97-21.65,0-33.18-13.66-33.18-33.54Z"/>
    <path class="cls-2" d="m745.18,226.14c0-25.02,20.41-45.43,46.49-45.43s46.13,20.58,46.13,45.43-20.05,45.78-46.13,45.78-46.49-20.58-46.49-45.78Zm75.06.18c0-15.97-12.42-29.1-28.57-29.1s-28.93,13.13-28.93,29.1,12.6,28.92,28.93,28.92,28.57-13.13,28.57-28.92Z"/>
    <path class="cls-2" d="m848.62,309.72v-83.58c0-25.91,20.05-45.43,46.31-45.43s46.13,20.58,46.13,45.43c0,26.26-18.99,45.78-45.43,45.78-11.71,0-22.36-5.15-29.46-12.95v50.75h-17.57Zm74.88-83.4c0-15.97-12.42-28.92-28.57-28.92s-28.75,12.95-28.75,28.92,12.42,29.1,28.75,29.1,28.57-13.31,28.57-29.1Z"/>
    <path class="cls-2" d="m952.77,154.1c0-6.39,5.15-11.71,11.54-11.71s11.36,5.32,11.36,11.71-4.97,11.54-11.36,11.54-11.54-5.15-11.54-11.54Zm20.41,28.75v86.95h-17.57v-86.95h17.57Z"/>
    <path class="cls-2" d="m987.37,226.14c0-24.84,19.87-45.43,46.31-45.43s46.31,19.52,46.31,45.43v43.65h-16.68v-15.26c-6.57,10.65-18.1,17.39-32.3,17.39-25.2,0-43.65-20.58-43.65-45.78Zm75.06.18c0-15.97-12.42-29.1-28.75-29.1s-28.75,13.13-28.75,29.1,12.6,28.92,28.75,28.92,28.75-13.13,28.75-28.92Z"/>
  </g>
</svg>